<svg id="Group_25" data-name="Group 25" xmlns="http://www.w3.org/2000/svg" xmlns:xlink="http://www.w3.org/1999/xlink" width="112" height="84" viewBox="0 0 112 84">
  <defs>
    <clipPath id="clip-path">
      <path id="Mask" d="M0,0H74.654V18.043L69.936,23.56,68.78,60.808l4.569,6.476L74.654,84H0Z" fill="#d8d8d8" opacity="0"/>
    </clipPath>
  </defs>
  <g id="Oval">
    <path id="Mask-2" data-name="Mask" d="M0,0H74.654V18.043L69.936,23.56,68.78,60.808l4.569,6.476L74.654,84H0Z" fill="#d8d8d8" opacity="0"/>
    <g id="Oval-2" data-name="Oval" clip-path="url(#clip-path)">
      <g id="Oval-3" data-name="Oval" transform="translate(0 0)" fill="none" stroke="#2d2d2d" stroke-miterlimit="10" stroke-width="7.2">
        <ellipse cx="40.916" cy="41.455" rx="40.916" ry="41.455" stroke="none"/>
        <ellipse cx="40.916" cy="41.455" rx="37.316" ry="37.855" fill="none"/>
      </g>
    </g>
  </g>
  <path id="LesavocatsdeFrance" d="M58.057,26.923c0-2.557,1.4-4.279,3.635-4.279,1.576,0,2.722,1.305,2.722,3.408,0,.254-.447.508-1.093.49-.5-.013-.941-.017-1.461-.018h-.724c-.483,0-.867.01-1.239.022l-.373.014c.09,1.777.931,2.883,2.722,2.883a3.323,3.323,0,0,0,1.826-.634l.072.072-.2.779-.609.327a3.377,3.377,0,0,1-1.826.417A3.187,3.187,0,0,1,58.057,26.923Zm-7.235-.091A3.946,3.946,0,0,1,54.8,22.644a4,4,0,0,1,2.292.653,8.917,8.917,0,0,0-.376,1.4l-.537-.073a.724.724,0,0,0-.232-.653,2.2,2.2,0,0,0-1.54-.49c-1.165,0-2.113,1.106-2.113,2.811,0,1.939.967,3.154,2.722,3.154a3.324,3.324,0,0,0,1.827-.634l.071.072-.2.779-.608.327a3.38,3.38,0,0,1-1.827.417A3.275,3.275,0,0,1,50.822,26.832Zm-12.5,2.393A2.617,2.617,0,0,1,36.245,30.4a2.05,2.05,0,0,1-1.88-2.048c0-1.106.95-1.777,2.131-1.976a11.269,11.269,0,0,0,1.755-.435c0-.254.018-.544.018-.87.054-.924-.3-1.523-1.361-1.523a1.419,1.419,0,0,0-1.469,1.414L34.9,25c.072-.471.143-1.087.161-1.5a3.375,3.375,0,0,1,2.274-.851c1.755,0,2.417.906,2.328,2.193-.072,1.106-.09,2.556-.072,3.571.018.707.394,1.016.7,1.016a1.109,1.109,0,0,0,.573-.127l.072.072-.09.508-.394.236a1.806,1.806,0,0,1-.967.29C38.913,30.4,38.519,30.113,38.323,29.225ZM9.1,26.923c0-2.557,1.4-4.279,3.635-4.279,1.576,0,2.722,1.305,2.722,3.408,0,.254-.448.508-1.093.49-.5-.013-.941-.017-1.462-.018h-.724c-.483,0-.866.01-1.238.022l-.373.014c.089,1.777.931,2.883,2.722,2.883a3.321,3.321,0,0,0,1.826-.634l.072.072-.2.779-.608.327a3.38,3.38,0,0,1-1.827.417A3.187,3.187,0,0,1,9.1,26.923ZM5.855,30.331a9.421,9.421,0,0,1-.179-1.777A3.193,3.193,0,0,1,2.991,30.4c-1.558,0-2.7-1.305-2.7-3.3,0-2.774,1.791-4.459,3.815-4.459a2.134,2.134,0,0,1,1.54.49v-.458a31.282,31.282,0,0,0-.142-4.02C5.444,18.2,5.1,18,4.208,17.967v-.454a12.048,12.048,0,0,0,2.919-.308l.054.09a36.188,36.188,0,0,0-.25,5.756V23.8a27.608,27.608,0,0,0,.2,5.185c.125.436.466.67,1.093.689v.435a6.747,6.747,0,0,0-2.292.29Zm42.459-.182a6.431,6.431,0,0,0-.86.037l-.035-.073a36.967,36.967,0,0,0,.178-4.261c.018-1.523-.59-2.1-1.611-2.1-.841,0-1.791.925-1.791,2.956a23.927,23.927,0,0,0,.143,2.447c.054.436.483.6,1.182.616V30.2c-.608-.055-1.325-.055-1.969-.055s-1.362,0-1.952.055v-.436c.68-.018,1.11-.181,1.164-.616a20.674,20.674,0,0,0,.143-2.628,21.714,21.714,0,0,0-.107-2.448c-.072-.544-.43-.635-1.325-.67v-.454a9.334,9.334,0,0,0,2.471-.308l.054.09c.054.454.107,1.088.143,1.759a2.416,2.416,0,0,1,2.328-1.849,2.205,2.205,0,0,1,2.435,2.411c-.036,1.577-.036,3.082.018,4.1.018.436.465.6,1.146.616V30.2C49.479,30.149,48.96,30.149,48.315,30.149Zm-17.979,0c-.644,0-1.361,0-1.952.055v-.436c.681-.018,1.111-.181,1.165-.616a20.842,20.842,0,0,0,.143-2.628,21.714,21.714,0,0,0-.107-2.448c-.072-.544-.43-.635-1.326-.67v-.454a9.341,9.341,0,0,0,2.471-.308l.054.09c.053.381.089.907.125,1.469a2.057,2.057,0,0,1,1.916-1.559,1,1,0,0,1,.841.308v.073l-.34,1.305h-.071a1.407,1.407,0,0,0-.986-.363c-.788,0-1.289.472-1.289,2.738a23.673,23.673,0,0,0,.143,2.447c.053.436.483.6,1.182.616V30.2C31.7,30.149,30.981,30.149,30.335,30.149Zm-8.023,0c-.716,0-1.4,0-1.987.055v-.436c.68-.018,1.057-.181,1.11-.616.108-1.015.143-2.447.143-5.167,0-2.356-.035-3.789-.143-4.8-.053-.435-.429-.6-1.128-.617V18.13c.608.054,1.289.054,2.005.054h.355c1.962,0,3.124-.024,5.34-.127a18.549,18.549,0,0,0-.394,2.284l-.627.037c.162-.961-.053-1.287-.483-1.36a10.424,10.424,0,0,0-1.773-.127c-.5,0-.985.018-1.593.036-.072,1.451-.09,2.756-.09,4.677a11.166,11.166,0,0,0,1.146.037h.147a4.4,4.4,0,0,0,1.233-.09c.411-.127.662-.4.751-1.124h.627c-.126,1.088-.233,2.139-.305,3.354H26.02c.054-.852-.054-1.233-.465-1.36a4.9,4.9,0,0,0-1.362-.091H24c-.36,0-.619.005-.957.036v.512a42.364,42.364,0,0,0,.142,4.274c.054.436.43.6,1.129.616V30.2C23.71,30.149,23.029,30.149,22.313,30.149ZM70.4,11.694a6.753,6.753,0,0,0,.251-1.306l.519-.036a1.108,1.108,0,0,0,.375.943,1.95,1.95,0,0,0,1.129.326,1.276,1.276,0,0,0,1.361-1.3c0-.635-.322-1.051-1.218-1.324-1.289-.4-1.934-1.105-1.934-2.211a2.444,2.444,0,0,1,2.7-2.266,2.513,2.513,0,0,1,1.808.688,5.986,5.986,0,0,0-.25,1.251h-.519a1.164,1.164,0,0,0-.233-.815,1.487,1.487,0,0,0-1.164-.454,1.071,1.071,0,0,0-1.111,1.088c0,.761.394,1.124,1.308,1.432,1.468.49,1.916,1.07,1.916,1.958a2.754,2.754,0,0,1-2.991,2.61A3.66,3.66,0,0,1,70.4,11.694Zm-4.549-1.052c.072-1.722.089-3.589.072-5.094H64.736l.072-.454a2.9,2.9,0,0,0,.86-.326A3.567,3.567,0,0,0,66.849,3.01l.627-.073a15.475,15.475,0,0,0-.161,1.9h2.238a5.9,5.9,0,0,0-.09.689H67.315c-.054,1.414-.054,3.408,0,4.985a.768.768,0,0,0,.824.8,2.213,2.213,0,0,0,1.361-.472l.072.036-.161.689a2.63,2.63,0,0,1-1.881.707A1.492,1.492,0,0,1,65.847,10.642Zm-4.316.454a2.616,2.616,0,0,1-2.077,1.178,2.05,2.05,0,0,1-1.881-2.048c0-1.106.95-1.777,2.131-1.976a11.269,11.269,0,0,0,1.755-.435c0-.254.018-.544.018-.87.054-.924-.3-1.523-1.361-1.523a1.419,1.419,0,0,0-1.469,1.414l-.537.037c.072-.472.143-1.088.161-1.5a3.376,3.376,0,0,1,2.274-.852c1.755,0,2.418.906,2.328,2.193-.072,1.106-.089,2.557-.072,3.572.018.707.394,1.015.7,1.015a1.109,1.109,0,0,0,.573-.127l.072.072-.09.508-.393.236a1.812,1.812,0,0,1-.968.29C62.122,12.273,61.728,11.984,61.531,11.1ZM50.285,8.7A3.946,3.946,0,0,1,54.26,4.514a4,4,0,0,1,2.292.653,8.917,8.917,0,0,0-.376,1.4l-.537-.072a.725.725,0,0,0-.232-.653,2.2,2.2,0,0,0-1.54-.49c-1.165,0-2.113,1.106-2.113,2.811,0,1.939.967,3.155,2.722,3.155a3.324,3.324,0,0,0,1.827-.635l.071.072-.2.78-.608.326a3.38,3.38,0,0,1-1.827.417A3.275,3.275,0,0,1,50.285,8.7ZM42.029,8.43a3.62,3.62,0,0,1,3.6-3.916c2.1,0,3.384,1.378,3.384,3.843a3.62,3.62,0,0,1-3.6,3.916C43.319,12.273,42.029,10.9,42.029,8.43ZM30.784,11.1a2.616,2.616,0,0,1-2.077,1.178,2.05,2.05,0,0,1-1.881-2.048c0-1.106.949-1.777,2.131-1.976a11.269,11.269,0,0,0,1.755-.435c0-.254.018-.544.018-.87.054-.924-.3-1.523-1.361-1.523A1.419,1.419,0,0,0,27.9,6.835l-.537.037c.072-.472.144-1.088.161-1.5A3.376,3.376,0,0,1,29.8,4.514c1.755,0,2.418.906,2.328,2.193-.072,1.106-.089,2.557-.072,3.572.018.707.394,1.015.7,1.015a1.109,1.109,0,0,0,.573-.127l.072.072-.09.508-.393.236a1.812,1.812,0,0,1-.968.29C31.374,12.273,30.981,11.984,30.784,11.1Zm-14.147.6a6.683,6.683,0,0,0,.25-1.306l.519-.036a1.106,1.106,0,0,0,.376.943,1.95,1.95,0,0,0,1.129.326,1.276,1.276,0,0,0,1.361-1.3c0-.635-.322-1.051-1.218-1.324-1.29-.4-1.934-1.105-1.934-2.211a2.444,2.444,0,0,1,2.7-2.266,2.513,2.513,0,0,1,1.808.688,5.928,5.928,0,0,0-.25,1.251h-.519a1.164,1.164,0,0,0-.233-.815,1.487,1.487,0,0,0-1.164-.454,1.07,1.07,0,0,0-1.111,1.088c0,.761.394,1.124,1.307,1.432,1.469.49,1.916,1.07,1.916,1.958a2.753,2.753,0,0,1-2.99,2.61A3.655,3.655,0,0,1,16.637,11.694Zm-7.45-2.9c0-2.557,1.4-4.279,3.636-4.279,1.576,0,2.722,1.305,2.722,3.408,0,.254-.447.508-1.093.49-.5-.013-.941-.017-1.461-.018h-.724c-.483,0-.867.01-1.239.023l-.373.013c.089,1.777.932,2.883,2.722,2.883a3.324,3.324,0,0,0,1.827-.635l.072.072-.2.78-.609.326a3.377,3.377,0,0,1-1.826.417A3.188,3.188,0,0,1,9.186,8.793Zm28.205,3.444A36.412,36.412,0,0,0,34.9,6.309a1.815,1.815,0,0,0-1.468-1.051V4.822c.913,0,1.772-.036,2.488-.09l.072.054c.34,1.051,1.111,3.155,1.916,5.04,1.29-2.738,1.648-3.789,1.648-4.243,0-.236-.233-.344-.752-.381V4.768h.587c.8,0,1.652-.014,2.3-.072v.436a1.314,1.314,0,0,0-1.254.888,49.515,49.515,0,0,0-2.56,6.218Zm-37.373-.6c.68-.018,1.057-.181,1.111-.616.107-1.015.143-2.447.143-5.167,0-2.356-.036-3.789-.143-4.8C1.075.617.7.454,0,.435V0C.609.054,1.29.054,2.006.054h.3c.6,0,1.176-.007,1.683-.054V.435c-.68.019-1.057.182-1.111.617C2.776,2.066,2.74,3.5,2.74,5.855c0,4.135.156,4.735.437,5.033l.032.032.032.031a2.162,2.162,0,0,0,1.451.363,10.147,10.147,0,0,0,1.88-.109c.43-.073.716-.309.985-1.124l.644-.036a11.938,11.938,0,0,0-.233,1.994c-1.356-.014-2.8-.017-4.364-.018h-1.6c-.716,0-1.415,0-1.988.055Z" transform="translate(36.608 25.199)" fill="#2d2d2d"/>
</svg>
