<svg xmlns="http://www.w3.org/2000/svg" xmlns:xlink="http://www.w3.org/1999/xlink" width="331.879" height="339" viewBox="0 0 331.879 339">
  <defs>
    <clipPath id="clip-path">
      <path id="Mask" d="M0,124.761l4.431,76.03s-5.8,27.844,0,42.982S35.3,281.3,35.3,281.3s23.3,31.89,43.008,42.243S145.119,339,145.119,339l87.125-15.456L304.68,226.08l-13.02-64.223H264l-75.633-83.13,11.682-26.3L94.937,0l-76.5,57.092Z" fill="#d8d8d8" opacity="0"/>
    </clipPath>
    <clipPath id="clip-path-2">
      <path id="Mask-2" data-name="Mask" d="M.263,0S-1.11,68.692,4.693,83.83s30.867,37.527,30.867,37.527,23.3,31.89,43.008,42.243,66.813,15.456,66.813,15.456L232.506,163.6s29.556-28.087,48.871-59.847S332,0,332,0Z" fill="#d8d8d8" opacity="0"/>
    </clipPath>
  </defs>
  <g id="oval-2" transform="translate(-0.121)">
    <g id="Oval" transform="translate(0.263)">
      <path id="Mask-3" data-name="Mask" d="M0,124.761l4.431,76.03s-5.8,27.844,0,42.982S35.3,281.3,35.3,281.3s23.3,31.89,43.008,42.243S145.119,339,145.119,339l87.125-15.456L304.68,226.08l-13.02-64.223H264l-75.633-83.13,11.682-26.3L94.937,0l-76.5,57.092Z" fill="#d8d8d8" opacity="0"/>
      <g id="Oval-2-2" data-name="Oval" clip-path="url(#clip-path)">
        <g id="Oval-3" data-name="Oval" transform="translate(4.431 43.936)" fill="none" stroke="#fff" stroke-miterlimit="10" stroke-width="28.141">
          <ellipse cx="144.94" cy="144.33" rx="144.94" ry="144.33" stroke="none"/>
          <ellipse cx="144.94" cy="144.33" rx="130.87" ry="130.26" fill="none"/>
        </g>
      </g>
    </g>
    <g id="Oval-4" data-name="Oval" transform="translate(0 159.943)">
      <path id="Mask-4" data-name="Mask" d="M.263,0S-1.11,68.692,4.693,83.83s30.867,37.527,30.867,37.527,23.3,31.89,43.008,42.243,66.813,15.456,66.813,15.456L232.506,163.6s29.556-28.087,48.871-59.847S332,0,332,0Z" fill="#d8d8d8" opacity="0"/>
      <g id="Oval-5" data-name="Oval" clip-path="url(#clip-path-2)">
        <g id="Oval-6" data-name="Oval" transform="translate(4.693 -116.007)" fill="none" stroke="#2d2d2d" stroke-miterlimit="10" stroke-width="28.141">
          <ellipse cx="144.94" cy="144.33" rx="144.94" ry="144.33" stroke="none"/>
          <ellipse cx="144.94" cy="144.33" rx="130.87" ry="130.26" fill="none"/>
        </g>
      </g>
    </g>
    <ellipse id="Oval-7" data-name="Oval" cx="13.467" cy="13.426" rx="13.467" ry="13.426" transform="translate(259.91 97.337)" fill="#fff"/>
  </g>
</svg>
